<svg xmlns="http://www.w3.org/2000/svg" width="43.156" height="52.208" viewBox="0 0 43.156 52.208">
  <g id="Group_2670" data-name="Group 2670" transform="translate(-3489.21 -5394.945)">
    <path id="Path_1010" data-name="Path 1010" d="M33.236,29.567a1.626,1.626,0,0,1,1.624,1.624V50.716c-.018,1.991-1.584,3.443-3.534,4.14-1.172.493-.181,2.557-1.077,2.661-7.529.67-15.122.285-22.674,0-.643-.041-.48-1.014-.48-1.778a1.079,1.079,0,0,0-.624-.882c-2.032-.724-3.48-2.154-3.529-4.063-.063-6.534-.014-13.068,0-19.6a1.626,1.626,0,0,1,1.624-1.624H33.236Zm3.534,2.394a.445.445,0,0,1,.348-.434c.339-.072.8-.167,1.045-.213a13.632,13.632,0,0,1,2.226-.271A5.925,5.925,0,0,1,46,36.644c.032,2.624.24,5.756-.249,7.62A7.827,7.827,0,0,1,41.512,49.3c-.819.367-2.412,1.14-3.986,1.873a.533.533,0,0,1-.756-.484V49.77a.535.535,0,0,1,.321-.489,29.062,29.062,0,0,0,4.982-2.538c2.525-2.14,2.1-6.253,2.05-10.05a4.006,4.006,0,0,0-4.4-3.738c-.774.136-1.647.362-2.389.511a.035.035,0,0,0-.014,0,.473.473,0,0,1-.38-.086.453.453,0,0,1-.167-.348V31.961ZM22.752,36.024a5.266,5.266,0,0,1,1.624,1.425c3.611,4.823-1.7,14.307-8.127,12.529a5.239,5.239,0,0,1-1.231-.511,5.5,5.5,0,0,1-.878-.638,5.033,5.033,0,0,1-.62-.661c-3.43-4.312.253-12.493,6.244-12.846.136-.009.271-.009.407-.009a5.509,5.509,0,0,1,2.538.692c.014,0,.027.014.041.018Zm.6,3.52a.791.791,0,0,0-.679-.462.774.774,0,0,0-.715.4c-1.452,2.538-2.964,5.041-4.448,7.561a.8.8,0,0,0,.814,1.2,7.312,7.312,0,0,0,5.416-6.733,4.96,4.96,0,0,0-.389-1.968Zm-2.706-1.71a.438.438,0,0,0,.009-.416.419.419,0,0,0-.348-.226h0c-.1,0-.186,0-.276,0-3.955.068-7.081,5.575-5.638,8.9a.761.761,0,0,0,.67.439.774.774,0,0,0,.692-.4c1.6-2.783,3.267-5.529,4.891-8.3ZM19.033,5.685a.964.964,0,0,1,.692,1.4A10.754,10.754,0,0,0,18.9,9.047c-.932,3.416,1.579,6.832,2.041,10.3a10.968,10.968,0,0,1-1.2,6.615,1.192,1.192,0,0,1-.909.489.932.932,0,0,1-.742-1.376,11.918,11.918,0,0,0,.814-2.122c.869-3.543-1.665-7.081-2.09-10.552A10.1,10.1,0,0,1,18.11,6.142a.838.838,0,0,1,.923-.457Zm-7.176,4.584a.968.968,0,0,1,.71,1.4,6.316,6.316,0,0,0-.321,4.416,13.892,13.892,0,0,1,1.163,3.439,7.558,7.558,0,0,1-.824,4.538,1.213,1.213,0,0,1-.882.5.975.975,0,0,1-.769-1.376,7.139,7.139,0,0,0,.258-4.778,13.357,13.357,0,0,1-1.131-3.366,6.919,6.919,0,0,1,.891-4.317.922.922,0,0,1,.9-.457Zm14.3,0a.968.968,0,0,1,.71,1.4,6.316,6.316,0,0,0-.321,4.416,13.892,13.892,0,0,1,1.163,3.439,7.558,7.558,0,0,1-.824,4.538,1.253,1.253,0,0,1-.552.457.975.975,0,0,1-1.1-1.335,7.139,7.139,0,0,0,.258-4.778,13.357,13.357,0,0,1-1.131-3.366,6.919,6.919,0,0,1,.891-4.317.922.922,0,0,1,.9-.457Z" transform="translate(3486.299 5389.265)" fill="#bec1d6" fill-rule="evenodd"/>
  </g>
</svg>
