<svg xmlns="http://www.w3.org/2000/svg" width="43.113" height="52.156" viewBox="0 0 43.113 52.156">
  <g id="Group_2672" data-name="Group 2672" transform="translate(-3479.21 -5394.945)">
    <path id="Path_1010" data-name="Path 1010" d="M33.206,29.543a1.624,1.624,0,0,1,1.623,1.623V50.671c-.018,1.989-1.582,3.44-3.53,4.136-1.171.493-.181,2.554-1.076,2.658-7.522.669-15.107.285-22.651,0-.642-.041-.479-1.013-.479-1.776a1.077,1.077,0,0,0-.624-.881c-2.03-.723-3.476-2.152-3.526-4.059-.063-6.527-.014-13.055,0-19.582a1.624,1.624,0,0,1,1.623-1.623H33.206Zm3.53,2.391a.445.445,0,0,1,.348-.434c.339-.072.8-.167,1.044-.212a13.618,13.618,0,0,1,2.224-.271,5.919,5.919,0,0,1,5.6,5.6c.032,2.622.24,5.75-.249,7.612a7.819,7.819,0,0,1-4.231,5.031c-.818.366-2.409,1.139-3.982,1.871a.532.532,0,0,1-.755-.484v-.918a.534.534,0,0,1,.321-.488A29.033,29.033,0,0,0,42.034,46.7c2.522-2.138,2.1-6.247,2.048-10.04a4,4,0,0,0-4.4-3.734c-.773.136-1.645.362-2.387.511a.035.035,0,0,0-.014,0,.473.473,0,0,1-.38-.086.453.453,0,0,1-.167-.348V31.935ZM19.017,5.685a.963.963,0,0,1,.692,1.4,10.744,10.744,0,0,0-.823,1.962c-.931,3.413,1.578,6.826,2.039,10.293a10.957,10.957,0,0,1-1.2,6.609,1.191,1.191,0,0,1-.909.488.931.931,0,0,1-.741-1.374,11.906,11.906,0,0,0,.814-2.12C19.758,19.4,17.227,15.864,16.8,12.4a10.09,10.09,0,0,1,1.293-6.256.837.837,0,0,1,.922-.457Zm-7.169,4.579a.967.967,0,0,1,.71,1.4,6.31,6.31,0,0,0-.321,4.412A13.878,13.878,0,0,1,13.4,19.512a7.551,7.551,0,0,1-.823,4.534,1.211,1.211,0,0,1-.881.5.974.974,0,0,1-.768-1.374,7.132,7.132,0,0,0,.258-4.773,13.343,13.343,0,0,1-1.13-3.363,6.912,6.912,0,0,1,.89-4.312.921.921,0,0,1,.9-.457Zm14.289,0a.967.967,0,0,1,.71,1.4,6.31,6.31,0,0,0-.321,4.412,13.878,13.878,0,0,1,1.162,3.435,7.551,7.551,0,0,1-.823,4.534,1.252,1.252,0,0,1-.551.457.974.974,0,0,1-1.1-1.333,7.132,7.132,0,0,0,.258-4.773,13.344,13.344,0,0,1-1.13-3.363,6.912,6.912,0,0,1,.891-4.312.921.921,0,0,1,.9-.457Z" transform="translate(3476.299 5389.265)" fill="#73ac5e" fill-rule="evenodd"/>
    <path id="star_3_" data-name="star (3)" d="M8.5,11.925l4.017,2.424L11.451,9.78,15,6.706l-4.673-.4L8.5,2,6.673,6.3,2,6.706,5.542,9.78,4.483,14.35Z" transform="translate(3487.209 5423.945)" fill="none" stroke="#fff" stroke-width="1.5"/>
  </g>
</svg>
