<svg xmlns="http://www.w3.org/2000/svg" width="22.39" height="22.39" viewBox="0 0 22.39 22.39"><path d="M11.195,0A11.195,11.195,0,1,1,0,11.195,11.195,11.195,0,0,1,11.195,0Z" fill="#edebf5"/><g transform="translate(4.472 6.707)"><path d="M13.275,11.633a.663.663,0,1,1-.663.663.665.665,0,0,1,.663-.663m0-1.327a1.99,1.99,0,1,0,1.99,1.99,1.987,1.987,0,0,0-1.99-1.99M7.306,5.663H3.99V6.99H7.306V5.663M11.949,5H9.959V6.327h1.99V8.084L9.627,10.969H7.306V7.653H4.653A2.652,2.652,0,0,0,2,10.306V12.3H3.327a1.99,1.99,0,1,0,3.98,0h2.985l2.985-3.747V6.327A1.326,1.326,0,0,0,11.949,5M5.316,12.959a.665.665,0,0,1-.663-.663H5.98A.665.665,0,0,1,5.316,12.959Z" transform="translate(-2 -5)" fill="#bebfcb"/></g></svg>