<svg xmlns="http://www.w3.org/2000/svg" width="20" height="20" viewBox="0 0 20 20">
  <path id="map-outline" d="M22.444,3l-.178.033-5.933,2.3L9.667,3,3.4,5.111a.56.56,0,0,0-.4.533v16.8A.556.556,0,0,0,3.556,23l.178-.033,5.933-2.3L16.333,23,22.6,20.889a.56.56,0,0,0,.4-.533V3.556A.556.556,0,0,0,22.444,3M10.778,5.744,15.222,7.3V20.256L10.778,18.7V5.744m-5.556,1.1L8.556,5.722v13L5.222,20.011V6.844M20.778,19.156l-3.333,1.122V7.289L20.778,6V19.156Z" transform="translate(-3 -3)" fill="#5ed1ad"/>
</svg>
