<svg xmlns="http://www.w3.org/2000/svg" width="60" height="60" viewBox="0 0 60 60"><g transform="translate(-29 -18)"><rect width="60" height="60" rx="18" transform="translate(29 18)" opacity="0.1"/><g transform="translate(39 28)"><rect width="40" height="40" fill="none"/><g transform="translate(0 6.667)"><path d="M33.651,23.618a1.862,1.862,0,1,1-1.862,1.862,1.867,1.867,0,0,1,1.862-1.862m0-3.724a5.586,5.586,0,1,0,5.586,5.586,5.578,5.578,0,0,0-5.586-5.586M16.895,6.862H7.586v3.724h9.309V6.862M29.928,5H24.342V8.724h5.586v4.934l-6.516,8.1H16.895V12.447H9.447A7.445,7.445,0,0,0,2,19.895V25.48H5.724a5.586,5.586,0,0,0,11.171,0h8.378l8.378-10.519V8.724A3.723,3.723,0,0,0,29.928,5M11.309,27.342A1.867,1.867,0,0,1,9.447,25.48h3.724A1.867,1.867,0,0,1,11.309,27.342Z" transform="translate(-1 -4.667)" fill="#fff"/></g></g></g></svg>