<svg xmlns="http://www.w3.org/2000/svg" width="60" height="60" viewBox="0 0 60 60"><g transform="translate(-34 -18)"><rect width="60" height="60" rx="18" transform="translate(34 18)" opacity="0.1"/><g transform="translate(47 28)"><rect width="35" height="35" fill="none"/><path d="M14.935,2.03V4.407a9.414,9.414,0,0,1,0,18.686v2.353a11.767,11.767,0,0,0,0-23.416m-2.353.035A11.564,11.564,0,0,0,6.31,4.654L7.992,6.4a9.408,9.408,0,0,1,4.589-1.977V2.065M4.651,6.313a11.631,11.631,0,0,0-2.6,6.272H4.4A9.433,9.433,0,0,1,6.333,8L4.651,6.313M2.062,14.938a11.813,11.813,0,0,0,2.6,6.272l1.671-1.683a9.416,9.416,0,0,1-1.918-4.589H2.062m5.931,6.319L6.31,22.869a11.76,11.76,0,0,0,6.272,2.659V23.175a9.416,9.416,0,0,1-4.589-1.918M14.347,7.878v6.178l5.3,3.142-.883,1.447-6.178-3.707V7.878Z" transform="translate(3.19 6.206)" fill="#fff"/></g></g></svg>