<svg xmlns="http://www.w3.org/2000/svg" width="14.62" height="14.652" viewBox="0 0 14.62 14.652"><path d="M10.074,2.03V3.512a5.871,5.871,0,0,1,0,11.651v1.467a7.338,7.338,0,0,0,0-14.6m-1.466.022A7.2,7.2,0,0,0,4.7,3.666L5.751,4.752A5.855,5.855,0,0,1,8.609,3.519V2.052M3.67,4.7A7.257,7.257,0,0,0,2.05,8.611H3.516a5.886,5.886,0,0,1,1.2-2.861L3.67,4.7M2.057,10.079a7.371,7.371,0,0,0,1.62,3.911L4.717,12.94a5.875,5.875,0,0,1-1.194-2.861H2.057m3.693,3.94L4.7,15.024a7.319,7.319,0,0,0,3.906,1.658V15.215a5.86,5.86,0,0,1-2.858-1.2M9.708,5.677V9.529l3.3,1.959-.55.9L8.609,10.079v-4.4Z" transform="translate(-2.05 -2.03)" fill="#fc5757"/></svg>