<svg xmlns="http://www.w3.org/2000/svg" width="22.39" height="22.39" viewBox="0 0 22.39 22.39"><path d="M11.195,0A11.195,11.195,0,1,1,0,11.195,11.195,11.195,0,0,1,11.195,0Z" fill="#edebf5"/><g transform="translate(6.148 3.913)"><path d="M17.517,23A5.009,5.009,0,1,1,7.5,23Z" transform="translate(-7.5 -16.322)" fill="none" stroke="#bebfcb" stroke-linecap="round" stroke-linejoin="round" stroke-width="0.7"/><line y1="2.58" x2="2.58" transform="translate(0.455 11.383)" stroke-width="0.7" stroke="#bebfcb" stroke-linecap="round" stroke-linejoin="round" fill="none"/><line x1="2.58" y1="2.58" transform="translate(7.133 11.383)" stroke-width="0.7" stroke="#bebfcb" stroke-linecap="round" stroke-linejoin="round" fill="none"/><path d="M18.32,6.464a2.016,2.016,0,0,0,1.214-2.428c-.571-1.67-.871-2.353-.3-3.035" transform="translate(-15.036 -1)" fill="none" stroke="#bebfcb" stroke-linecap="round" stroke-linejoin="round" stroke-width="0.7"/><path d="M26.32,9.25a1.567,1.567,0,0,0,.935-1.888c-.44-1.3-.674-1.821-.234-2.362" transform="translate(-20.607 -3.786)" fill="none" stroke="#bebfcb" stroke-linecap="round" stroke-linejoin="round" stroke-width="0.7"/><path d="M13,28s.1,1.062,1.821,1.821" transform="translate(-11.33 -19.804)" fill="none" stroke="#bebfcb" stroke-linecap="round" stroke-linejoin="round" stroke-width="0.7"/></g></svg>