<svg xmlns="http://www.w3.org/2000/svg" width="22.39" height="22.39" viewBox="0 0 22.39 22.39"><path d="M11.195,0A11.195,11.195,0,1,1,0,11.195,11.195,11.195,0,0,1,11.195,0Z" fill="#edebf5"/><g transform="translate(3.444 6.472)"><rect width="9.846" height="2.024" transform="translate(0 1.132)" fill="none"/><rect width="9.846" height="2.024" transform="translate(0 4.048)" fill="none"/><rect width="9.846" height="0.858" transform="translate(0 3.156)" fill="#bebfcb"/><rect width="9.846" height="0.858" transform="translate(0 0.274)" fill="#bebfcb"/><rect width="9.846" height="0.858" transform="translate(0 6.072)" fill="#bebfcb"/><path d="M63.246,48.045l-.034-.034-.172-.137-.1-.137L62.9,47.7l-2.4,2.367V39.4h-.72V50.069L57.415,47.7l-.137.1-.034.069-.343.309L60.022,51.3l.069.069.069.069.069-.069,3.156-3.19Z" transform="translate(-48.495 -39.4)" fill="#bebfcb"/></g></svg>