<svg xmlns="http://www.w3.org/2000/svg" width="60" height="60" viewBox="0 0 60 60"><g transform="translate(-34 -18)"><rect width="60" height="60" rx="18" transform="translate(34 18)" opacity="0.1"/><g transform="translate(48 37)"><rect width="22.517" height="4.629" transform="translate(0 2.589)" fill="none"/><rect width="22.517" height="4.629" transform="translate(0 9.258)" fill="none"/><rect width="22.517" height="1.961" transform="translate(0 7.218)" fill="#fff"/><rect width="22.517" height="1.961" transform="translate(0 0.628)" fill="#fff"/><rect width="22.517" height="1.961" transform="translate(0 13.887)" fill="#fff"/><path d="M71.414,59.171l-.078-.078-.392-.314-.235-.314-.078-.078L65.138,63.8V39.4H63.49V63.8l-5.413-5.413-.314.235-.078.157-.785.706,7.139,7.139.157.157.157.157.157-.157,7.218-7.3Z" transform="translate(-37.678 -39.4)" fill="#fff"/></g></g></svg>