<svg xmlns="http://www.w3.org/2000/svg" width="60" height="60" viewBox="0 0 60 60"><g transform="translate(-34 -18)"><rect width="60" height="60" rx="18" transform="translate(34 18)" opacity="0.1"/><path d="M14.638,2A12.638,12.638,0,1,1,2,14.638,12.638,12.638,0,0,1,14.638,2m0,2.528A10.115,10.115,0,0,0,6.651,20.843L20.843,6.651a10.117,10.117,0,0,0-6.205-2.123m0,20.22A10.115,10.115,0,0,0,22.625,8.433L8.433,22.625A10.117,10.117,0,0,0,14.638,24.748Z" transform="translate(49 33)" fill="#fff"/></g></svg>