<svg xmlns="http://www.w3.org/2000/svg" width="135.859" height="123.523" viewBox="0 0 135.859 123.523"><g transform="translate(-193.687 -107.359)"><g transform="translate(193.687 107.359)"><g transform="translate(0)"><g transform="translate(1.003)"><g transform="translate(52.615 23.373)"><path d="M358.021,208.461c2.342-.086,10.641.038,12.876-.256s6.567-.007,7.513.9,1.567,1.877-3.213,4.1c0,0-.471.11-.12-.915s-2.787-.946-3.466-.729c-.634.2-8.417,1.547-14.029,2.453a4.1,4.1,0,0,1-2.6-.407c-1.605-.906-2.957-2.6-4.814-4.766a84.89,84.89,0,0,1-6.377-8.11s-3.169-4.332-1.9-6.427c1.633-2.7,4.749-2.3,7.043,1.42S356.11,207.1,358.021,208.461Z" transform="translate(-341.589 -192.558)" fill="#f5927e"/></g><g transform="translate(52.615 23.373)"><path d="M343.789,200.731a70.013,70.013,0,0,0,5.618,8.121l5.432-5.215c-1.97-2.792-4.594-5.777-5.909-7.913-2.294-3.724-5.41-4.118-7.043-1.42C340.62,196.4,343.789,200.731,343.789,200.731Z" transform="translate(-341.589 -192.558)" fill="#34a882"/></g><g transform="translate(42.797 52.641)"><path d="M318.754,260.885s-1.1,12.684,4.577,14.988c0,0,3.109,1.576,27.427,2.847,0,0,3.071,17.1,8.755,28.567l2.947-.316s-1.073-20.815-3.291-30.507c-2.17-9.48-26.462-14.774-26.462-14.774Z" transform="translate(-318.669 -260.885)" fill="#344582"/></g><g transform="translate(81.766 98.728)"><g transform="translate(0 0)"><path d="M411.519,368.79a3.406,3.406,0,0,0-1.876,3.24h10.914a14.383,14.383,0,0,0-6.092-3.556Z" transform="translate(-409.643 -368.474)" fill="#344582"/></g></g><g transform="translate(80.802 98.728)"><g transform="translate(0 0)"><path d="M409.268,368.79a3.406,3.406,0,0,0-1.876,3.24h10.914a14.384,14.384,0,0,0-6.092-3.556Z" transform="translate(-407.392 -368.474)" fill="#344582"/></g></g><g transform="translate(0 25.26)"><g transform="translate(27.193 42.369)"><path d="M285.813,298.042,282.362,310a3,3,0,0,0,2.88,3.829h23.841a3,3,0,0,0,2.88-2.167l3.452-11.961a3,3,0,0,0-2.88-3.829H288.694A3,3,0,0,0,285.813,298.042Z" transform="translate(-282.242 -295.875)" fill="#34a882"/></g><g transform="translate(27.913 42.369)"><rect width="35.048" height="2.543" rx="1.272" fill="#373b55"/></g><g transform="translate(10.798 64.032)"><circle cx="17.116" cy="17.116" r="17.116" fill="#373b55"/></g><g transform="translate(17.101 70.335)"><circle cx="10.813" cy="10.813" r="10.813" fill="#dee9ff"/></g><g transform="translate(23.479 76.714)"><circle cx="4.434" cy="4.434" r="4.434" fill="#bed3f4"/></g><g transform="translate(89.94 64.032)"><circle cx="17.116" cy="17.116" r="17.116" fill="#373b55"/></g><g transform="translate(96.243 70.335)"><circle cx="10.813" cy="10.813" r="10.813" fill="#dee9ff"/></g><g transform="translate(102.557 76.714)"><circle cx="4.434" cy="4.434" r="4.434" fill="#bed3f4"/></g><g transform="translate(119.46 61.189)"><path d="M501.073,339.81a54.3,54.3,0,0,1-3.433,19.958H511.5C511.5,347.021,501.08,340.272,501.073,339.81Z" transform="translate(-497.64 -339.81)" fill="#34a882"/></g><g transform="translate(50.111 20.439)"><path d="M379.17,244.679s9.494,15.325,9.741,31.078a16.876,16.876,0,0,1-16.949,17H335.744v12.629h69.349s14.4-33.677-15.731-60.708Z" transform="translate(-335.744 -244.679)" fill="#34a882"/></g><g transform="translate(50.111 20.439)"><path d="M389.362,244.679h-.031c24.452,26.2,11.505,56.54,11.505,56.54H335.744v4.168h69.349S419.495,271.71,389.362,244.679Z" transform="translate(-335.744 -244.679)" fill="#50c39f"/></g><rect width="8.495" height="6.583" rx="3.292" transform="translate(111.377 38.726)" fill="#50c39f"/><g transform="translate(0 48.135)"><path d="M225.325,313.318l-6.346,21.99a5.511,5.511,0,0,0,5.3,7.04h47.319a5.511,5.511,0,0,0,5.3-3.983l6.346-21.99a5.512,5.512,0,0,0-5.3-7.04H230.62A5.512,5.512,0,0,0,225.325,313.318Z" transform="translate(-218.759 -309.335)" fill="#50c39f"/><path d="M341.567,309.335h-5.154a5.512,5.512,0,0,1,5.3,7.04l-6.346,21.99a5.512,5.512,0,0,1-5.3,3.983h5.154a5.511,5.511,0,0,0,5.3-3.983l6.346-21.99A5.512,5.512,0,0,0,341.567,309.335Z" transform="translate(-282.388 -309.335)" fill="#34a882"/><path d="M235.74,309.335a5.512,5.512,0,0,0-5.3,3.983l-2.729,9.455H241.5a3,3,0,0,0,2.881-2.167l3.253-11.272Z" transform="translate(-223.879 -309.335)" fill="#23916c" opacity="0.8"/><g transform="translate(5.484 20.966)"><g transform="translate(0 5.484)"><rect width="28.898" height="0.997" rx="0.499" fill="#373b55"/></g><g transform="translate(0.748 2.742)"><rect width="28.898" height="0.997" rx="0.499" fill="#373b55"/></g><g transform="translate(1.496)"><rect width="28.898" height="0.997" rx="0.499" fill="#373b55"/></g></g></g><g transform="translate(89.189 13.903)"><rect width="19.11" height="6.536" rx="3.268" fill="#50c39f"/></g><g transform="translate(102.566 13.294)"><rect width="8.849" height="7.395" rx="3.697" fill="#dee9ff"/></g><g transform="translate(102.566 13.294)"><path d="M459.674,231.7a3.708,3.708,0,0,1,3.688-3.7H461.9a3.7,3.7,0,0,0,0,7.395h1.464A3.708,3.708,0,0,1,459.674,231.7Z" transform="translate(-458.201 -227.998)" fill="#bed3f4"/></g><g transform="translate(84.881)"><circle cx="4.32" cy="4.32" r="4.32" fill="#dee9ff"/></g><g transform="translate(85.776)"><circle cx="4.32" cy="4.32" r="4.32" fill="#bed3f4"/></g><g transform="translate(80.634 16.432)"><path d="M419.545,237.983H408.329a1.329,1.329,0,1,1,0-2.659h11.216a1.329,1.329,0,0,1,0,2.659Z" transform="translate(-406.999 -235.324)" fill="#373b55"/></g></g><g transform="translate(37.654)"><g transform="translate(19.268 3.366)"><path d="M354.682,145.852s4.458,2.7,1.043,6.768-4.08-3.086-4.08-3.086l1.394-2.249Z" transform="translate(-351.645 -145.852)" fill="#262a42"/></g><g transform="translate(13.799 17.977)"><path d="M344.149,180.637a5.358,5.358,0,0,0-.978,2.894,4.412,4.412,0,0,1-4.295-1.135l1.15-2.434Z" transform="translate(-338.877 -179.962)" fill="#f5927e"/></g><g transform="translate(12.495 7.163)"><path d="M346.048,155.561s2.56,6.648-.051,9.78c-1.674,2.008-7.71.189-7.71.189a8.231,8.231,0,0,1-2.437-4.061,5.664,5.664,0,0,1,4.525-6.162C342.652,154.845,345.215,154.134,346.048,155.561Z" transform="translate(-335.834 -154.716)" fill="#f8ab98"/></g><g transform="translate(12.495 7.811)"><path d="M343.03,159.523a3.7,3.7,0,0,0,2.419-2h0l-1.1-1.167-.065-.032-2.576-.1a23.183,23.183,0,0,0-4.271,1.544,5.752,5.752,0,0,0-1.582,4.561,30.134,30.134,0,0,0,2.437,4.061,5.235,5.235,0,0,0,4.122.675c-2.179-.539-2.419-2.046-2.137-3.83S341.307,159.9,343.03,159.523Z" transform="translate(-335.834 -156.229)" fill="#f5927e"/></g><g transform="translate(8.948 1.723)"><path d="M333.149,159.125A6.833,6.833,0,0,0,335.183,155s-2.439-1.151-1.663-2.8,1.955-.014,2.278.563a3.608,3.608,0,0,1,2.488-2.156c1.96-.526,4.181-1.839,3.49-5.013a4.344,4.344,0,0,0-3.449-3.535s-7.432-1-9.31,6.308a3.1,3.1,0,0,0-1.459,2.984,3.8,3.8,0,0,0,1.856,3.3C333.243,156.889,333.149,159.125,333.149,159.125Z" transform="translate(-327.552 -142.015)" fill="#373b55"/></g><g transform="translate(12.808 20.014)"><path d="M337.187,184.716a33.732,33.732,0,0,0,6.73,1.284l-1.11,2.2s-4.03-.649-6.243-2.555Z" transform="translate(-336.564 -184.716)" fill="#34a882"/></g><g transform="translate(2.25 52.641)"><path d="M312,260.885s-1.1,12.684,4.577,14.988c0,0,3.109,1.576,27.427,2.847,0,0,3.071,17.1,8.755,28.567l2.946-.316s-1.072-20.815-3.291-30.507c-2.17-9.48-26.463-14.774-26.463-14.774Z" transform="translate(-311.917 -260.885)" fill="#40589b"/></g><g transform="translate(0 20.942)"><path d="M319.471,186.883s-14.358,7.974-12.67,36.693c.131,2.224,18.933,1.719,23.444-2.176a35.545,35.545,0,0,1-3.937-17.342c2.406-5.91,4.773-12.705-.593-14.62S319.471,186.883,319.471,186.883Z" transform="translate(-306.663 -186.883)" fill="#50c39f"/></g><g transform="translate(0 23.821)"><path d="M316.05,193.6c-4.132,4.362-10.4,14.291-9.249,33.814.04.675,1.8,1.1,4.363,1.251Z" transform="translate(-306.663 -193.604)" fill="#34a882"/></g><g transform="translate(13.121 25.438)"><path d="M343.809,211.269a2.648,2.648,0,0,1,.008-1.211q.238-.585.473-1.18l0-.006c.469-1.19.915-2.4,1.281-3.583-.188-.221-.38-.434-.581-.628l-4.666-4.521s.976-4.071-1.844-2.325c-2.781,1.722-.57,8.618,5.422,15.819C343.849,212.868,343.816,212.078,343.809,211.269Z" transform="translate(-337.294 -197.379)" fill="#34a882"/></g><g transform="translate(41.22 98.728)"><g transform="translate(0 0)"><path d="M404.767,368.79a3.406,3.406,0,0,0-1.876,3.24h10.914a14.383,14.383,0,0,0-6.092-3.556Z" transform="translate(-402.891 -368.474)" fill="#373b55"/></g></g><g transform="translate(17.952 12.313)"><path d="M349.775,168.874s1.481,1.991-1.2,3.747c0,0,.793,1.013,3.184.542s3.432-3.95,3.094-5.835C354.575,165.8,351.361,167.579,349.775,168.874Z" transform="translate(-348.571 -166.738)" fill="#dee9ff"/></g><g transform="translate(16.966 12.243)"><path d="M348.526,169a.229.229,0,0,1-.152-.006,4.679,4.679,0,0,1-2.082-2.088.227.227,0,0,1,.409-.2,4.289,4.289,0,0,0,1.844,1.866.227.227,0,0,1-.019.428Z" transform="translate(-346.269 -166.576)" fill="#dee9ff"/></g><g transform="translate(16.33 14.478)"><path d="M346.474,175.728a.226.226,0,0,1-.2-.034,4.176,4.176,0,0,1-1.464-3.7.227.227,0,1,1,.451.057,3.787,3.787,0,0,0,1.281,3.278.228.228,0,0,1-.068.4Z" transform="translate(-344.786 -171.792)" fill="#dee9ff"/></g><g transform="translate(18.582)"><path d="M350.043,142.042s6.493-3.849,8.256-4.043-3.043,4.69-3.043,4.69l-1.468.723Z" transform="translate(-350.043 -137.994)" fill="#50c39f"/></g><g transform="translate(8.099 0.833)"><path d="M332.386,151.014c.481-1.021,1.118-.78,1.609-.312,4.324-3.952,7.271-6.9,7.271-6.9s-4.52-8.9-13.554.324c-5.65,5.77,1.657,10.706,1.657,10.706q1.55-1.349,2.971-2.632A1.436,1.436,0,0,1,332.386,151.014Z" transform="translate(-325.57 -139.939)" fill="#50c39f"/></g></g></g><g transform="translate(10.941 12.313)"><g transform="translate(0 0)"><g transform="translate(0 0.362)"><path d="M271.18,206.339l-28.2-6.59a1.325,1.325,0,0,1-.988-1.591l7.146-30.575,30.776,7.193-7.145,30.575A1.325,1.325,0,0,1,271.18,206.339Z" transform="translate(-241.96 -167.583)" fill="#ffd328"/></g><g transform="translate(4.809)"><g transform="translate(0)"><rect width="3.611" height="34.788" transform="translate(0 3.516) rotate(-76.846)" fill="#faa505"/></g></g><circle cx="1.678" cy="1.678" r="1.678" transform="translate(35.459 9.382)" fill="#4a506d"/><circle cx="1.678" cy="1.678" r="1.678" transform="translate(28.199 37.189)" fill="#4a506d"/></g></g><g transform="translate(40.168 22.309)"><path d="M310.929,219.58a.739.739,0,0,1-.326-1.4c.215-.105,21.465-10.681,18.942-21.409-1.608-6.834-10.49-5.011-10.869-4.93a.739.739,0,0,1-.31-1.445c3.685-.794,11.069-.549,12.618,6.036,2.791,11.869-18.809,22.623-19.73,23.075A.736.736,0,0,1,310.929,219.58Z" transform="translate(-310.189 -190.075)" fill="#373b55"/></g><g transform="translate(52.282 24.668)"><path d="M354.9,211.484c2.342-.086,10.641.038,12.876-.257s6.567-.006,7.513.9,1.567,1.877-3.213,4.1c0,0-.471.11-.121-.915s-2.787-.946-3.466-.729c-.634.2-8.417,1.547-14.029,2.453a4.1,4.1,0,0,1-2.6-.407c-1.605-.906-2.957-2.6-4.815-4.765a84.974,84.974,0,0,1-6.377-8.11s-3.169-4.331-1.9-6.427c1.633-2.7,4.749-2.3,7.042,1.42S352.992,210.127,354.9,211.484Z" transform="translate(-338.47 -195.581)" fill="#f8ab98"/></g><g transform="translate(52.282 24.668)"><path d="M340.67,203.753a69.956,69.956,0,0,0,5.619,8.121l5.432-5.215c-1.971-2.792-4.594-5.777-5.909-7.912-2.293-3.724-5.409-4.118-7.042-1.42C337.5,199.422,340.67,203.753,340.67,203.753Z" transform="translate(-338.47 -195.581)" fill="#50c39f"/></g><g transform="translate(0 50.564)"><g transform="translate(0 17.066)"><path d="M219.988,298.042,216.537,310a3,3,0,0,0,2.88,3.829h14.376a3,3,0,0,0,2.881-2.167l3.451-11.961a3,3,0,0,0-2.88-3.829H222.869A3,3,0,0,0,219.988,298.042Z" transform="translate(-216.417 -295.875)" fill="#34a882"/><g transform="translate(0.72 0)"><rect width="25.584" height="2.543" rx="1.272" fill="#373b55"/></g></g><g transform="translate(0.889)"><g transform="translate(1.103 2.502)"><rect width="22.291" height="14.564" fill="#ffd328"/></g><rect width="24.497" height="2.502" fill="#faa505"/></g></g><g transform="translate(91.1 28.916)"><path d="M438.53,218.442l-4.316-11.614h-4.459a.665.665,0,0,1-.665-.664h0a.665.665,0,0,1,.665-.665h5.384l4.638,12.481a.665.665,0,0,1-.392.855h0A.665.665,0,0,1,438.53,218.442Z" transform="translate(-429.09 -205.498)" fill="#dee9ff"/></g><line y1="31.854" x2="7.451" transform="translate(14.908 13.665)" fill="none" stroke="#373b55" stroke-linecap="round" stroke-miterlimit="10" stroke-width="3"/><line y1="31.854" x2="7.451" transform="translate(36.442 18.732)" fill="none" stroke="#373b55" stroke-linecap="round" stroke-miterlimit="10" stroke-width="3"/><circle cx="5.813" cy="5.813" r="5.813" transform="translate(24.106 26.257)" fill="#d9b415"/><path d="M4.3,0A4.3,4.3,0,1,1,0,4.3,4.3,4.3,0,0,1,4.3,0Z" transform="translate(8.838 56.048)" fill="#d9b415"/><g transform="translate(5.558 49.934)"><path d="M230.022,272.89a.63.63,0,0,1-.63-.63V255.194a.63.63,0,0,1,1.26,0V272.26A.63.63,0,0,1,230.022,272.89Z" transform="translate(-229.392 -254.564)" fill="#373b55"/><g transform="translate(14.469)"><path d="M263.8,272.89a.63.63,0,0,1-.63-.63V255.194a.63.63,0,0,1,1.26,0V272.26A.63.63,0,0,1,263.8,272.89Z" transform="translate(-263.17 -254.564)" fill="#373b55"/></g></g></g><g transform="translate(114.454 64.843)"><rect width="6.422" height="4.87" rx="2.435" fill="#dee9ff"/><rect width="5.891" height="3.246" rx="1.623" transform="translate(1.054 0.812)" fill="#ffb958"/></g><rect width="17.47" height="2.022" rx="1.011" transform="translate(118.389 104.386)" fill="#50c39f"/></g></g></svg>