<svg xmlns="http://www.w3.org/2000/svg" xmlns:xlink="http://www.w3.org/1999/xlink" width="38" height="48" viewBox="0 0 38 48"><defs><clipPath id="a"><rect width="38" height="48" rx="12" fill="none"/></clipPath></defs><rect width="38" height="48" rx="12" fill="none"/><g clip-path="url(#a)"><g opacity="0.1"><rect width="38" height="48" fill="#503e9d"/></g></g><path d="M6.62,10.79a15.1,15.1,0,0,0,6.59,6.59l2.2-2.2a1,1,0,0,1,1.02-.25A11.36,11.36,0,0,0,20,15.5a1,1,0,0,1,1,1V20a1,1,0,0,1-1,1A17,17,0,0,1,3,4,1,1,0,0,1,4,3H7.5a1,1,0,0,1,1,1,11.36,11.36,0,0,0,.57,3.57,1,1,0,0,1-.25,1.02Z" transform="translate(7 12)"/></svg>