<svg xmlns="http://www.w3.org/2000/svg" xmlns:xlink="http://www.w3.org/1999/xlink" width="38" height="48" viewBox="0 0 38 48"><defs><style>.a{fill:none;}.b{clip-path:url(#a);}.c{opacity:0.1;}.d{fill:#503e9d;}</style><clipPath id="a"><rect class="a" width="38" height="48" rx="12"/></clipPath></defs><rect class="a" width="38" height="48" rx="12"/><g class="b"><g class="c"><rect class="d" width="38" height="48"/></g></g><path d="M16,18H7V4h9M11.5,22A1.5,1.5,0,1,1,13,20.5,1.5,1.5,0,0,1,11.5,22m4-21h-8A2.5,2.5,0,0,0,5,3.5v17A2.5,2.5,0,0,0,7.5,23h8A2.5,2.5,0,0,0,18,20.5V3.5A2.5,2.5,0,0,0,15.5,1Z" transform="translate(8 12)"/></svg>