<svg xmlns="http://www.w3.org/2000/svg" xmlns:xlink="http://www.w3.org/1999/xlink" width="38" height="48" viewBox="0 0 38 48"><defs><clipPath id="a"><rect width="38" height="48" rx="12" fill="none"/></clipPath></defs><rect width="38" height="48" rx="12" fill="none"/><g clip-path="url(#a)"><g opacity="0.1"><rect width="38" height="48" fill="#503e9d"/></g></g><path d="M22,18v4H18V19H15V16H12L9.74,13.74A5.861,5.861,0,0,1,8,14a6,6,0,1,1,6-6,5.861,5.861,0,0,1-.26,1.74L22,18M7,5A2,2,0,1,0,9,7,2,2,0,0,0,7,5Z" transform="translate(7 12)" fill="#0f0f2c"/></svg>