<svg xmlns="http://www.w3.org/2000/svg" xmlns:xlink="http://www.w3.org/1999/xlink" width="38" height="48" viewBox="0 0 38 48"><defs><clipPath id="a"><rect width="38" height="48" rx="12" fill="none"/></clipPath><clipPath id="b"><path d="M0,16V13C0,10.33,5.33,9,8,9s8,1.33,8,4v3ZM4,4A4,4,0,1,1,8,8,4,4,0,0,1,4,4Z" transform="translate(1 1)" fill="#0f0f2c"/></clipPath></defs><rect width="38" height="48" rx="12" fill="none"/><g clip-path="url(#a)"><g opacity="0.1"><rect width="38" height="48" fill="#503e9d"/></g></g><g transform="translate(10 15)"><rect width="18" height="18" fill="none"/><path d="M0,16V13C0,10.33,5.33,9,8,9s8,1.33,8,4v3ZM4,4A4,4,0,1,1,8,8,4,4,0,0,1,4,4Z" transform="translate(1 1)" fill="#0f0f2c"/><g clip-path="url(#b)"><rect width="18" height="18" fill="#0f0f2c"/></g></g></svg>