<svg xmlns="http://www.w3.org/2000/svg" width="83.494" height="97.593" viewBox="0 0 83.494 97.593"><g transform="translate(-2455 169.982)"><g transform="translate(2455 -137.747)"><g transform="translate(0 0)"><g transform="translate(0.694 14.237)"><path d="M97.726,260.891H16.574a.768.768,0,0,1-.768-.768,41.317,41.317,0,0,1,70.536-29.179,40.974,40.974,0,0,1,12.149,29.105c0,.024,0,.049,0,.074A.768.768,0,0,1,97.726,260.891ZM17.35,259.354h79.6a39.807,39.807,0,0,0-79.6,0Z" transform="translate(-15.806 -218.84)" fill="#221f20"/></g><g transform="translate(0 62.194)"><path d="M94.468,490.709H12.51c-.424,0-.768.708-.768,1.582s.344,1.582.768,1.582H94.468c.424,0,.768-.708.768-1.582S94.893,490.709,94.468,490.709Z" transform="translate(-11.742 -490.709)" fill="#221f20"/></g><g transform="translate(40.863 21.416)"><path d="M277.3,276.772a.768.768,0,0,1-.657-.369,29.228,29.228,0,0,0-24.811-13.984.768.768,0,1,1,0-1.537,30.5,30.5,0,0,1,15.2,4.066A30.825,30.825,0,0,1,277.956,275.6a.769.769,0,0,1-.656,1.168Z" transform="translate(-251.063 -260.882)" fill="#221f20"/></g><g transform="translate(33.338 0)"><path d="M214.821,151.232a7.887,7.887,0,0,1,0-15.774,7.887,7.887,0,1,1,0,15.774Zm0-14.237a6.35,6.35,0,0,0,0,12.7,6.35,6.35,0,1,0,0-12.7Z" transform="translate(-206.99 -135.458)" fill="#221f20"/></g><g transform="translate(10.187 38.779)"><path d="M75.53,364.112H72.174a.768.768,0,0,1,0-1.537H75.53a.768.768,0,0,1,0,1.537Z" transform="translate(-71.406 -362.575)" fill="#221f20"/></g><g transform="translate(12.271 45.607)"><path d="M87.734,404.1H84.377a.768.768,0,1,1,0-1.537h3.356a.768.768,0,1,1,0,1.537Z" transform="translate(-83.609 -402.563)" fill="#221f20"/></g><g transform="translate(20.026 40.283)"><path d="M133.038,372.919H129.8a.768.768,0,1,1,0-1.537h3.242a.768.768,0,0,1,0,1.537Z" transform="translate(-129.027 -371.382)" fill="#221f20"/></g><g transform="translate(24.078 47.693)"><path d="M156.768,416.314h-3.242a.768.768,0,1,1,0-1.537h3.242a.768.768,0,1,1,0,1.537Z" transform="translate(-152.757 -414.777)" fill="#221f20"/></g><g transform="translate(17.248 34.03)"><path d="M116.767,336.294h-3.24a.768.768,0,0,1,0-1.537h3.24a.768.768,0,0,1,0,1.537Z" transform="translate(-112.758 -334.757)" fill="#221f20"/></g><g transform="translate(26.393 31.601)"><path d="M170.44,322.072h-3.358a.768.768,0,1,1,0-1.537h3.358a.768.768,0,1,1,0,1.537Z" transform="translate(-166.314 -320.535)" fill="#221f20"/></g><g transform="translate(29.866 38.779)"><path d="M190.666,364.112h-3.24a.768.768,0,0,1,0-1.537h3.24a.768.768,0,0,1,0,1.537Z" transform="translate(-186.657 -362.575)" fill="#221f20"/></g><g transform="translate(31.603 45.491)"><path d="M200.954,403.421H197.6a.768.768,0,0,1,0-1.537h3.356a.768.768,0,1,1,0,1.537Z" transform="translate(-196.83 -401.884)" fill="#221f20"/></g></g></g><g transform="translate(2482.384 -169.982)"><rect width="22.517" height="4.629" transform="translate(0 2.589)" fill="none"/><rect width="22.517" height="4.629" transform="translate(0 9.258)" fill="none"/><rect width="22.517" height="1.961" transform="translate(0 7.218)" fill="#010101"/><rect width="22.517" height="1.961" transform="translate(0 0.628)" fill="#010101"/><rect width="22.517" height="1.961" transform="translate(0 13.887)" fill="#010101"/><path d="M71.414,59.171l-.078-.078-.392-.314-.235-.314-.078-.078L65.138,63.8V39.4H63.49V63.8l-5.413-5.413-.314.235-.078.157-.785.706,7.139,7.139.157.157.157.157.157-.157,7.218-7.3Z" transform="translate(-37.678 -39.4)"/></g></g></svg>