<svg xmlns="http://www.w3.org/2000/svg" xmlns:xlink="http://www.w3.org/1999/xlink" width="184.182" height="184.182" viewBox="0 0 184.182 184.182"><defs><filter id="a" x="0" y="0" width="184.182" height="184.182" filterUnits="userSpaceOnUse"><feOffset input="SourceAlpha"/><feGaussianBlur stdDeviation="15" result="b"/><feFlood flood-color="#a8a8a8" flood-opacity="0.302"/><feComposite operator="in" in2="b"/><feComposite in="SourceGraphic"/></filter></defs><g transform="translate(44.926 45)"><g transform="translate(0 0.009)" fill="#5ed1ad"><path d="M 47.09086990356445 93.68167114257812 C 40.80091857910156 93.68167114257812 34.69938278198242 92.44988250732422 28.95575714111328 90.02053833007812 C 23.40780830383301 87.67395782470703 18.42513275146484 84.31451416015625 14.14615726470947 80.03553771972656 C 9.867170333862305 75.75654602050781 6.507719993591309 70.77388763427734 4.161144733428955 65.22593688964844 C 1.731794953346252 59.4823112487793 0.5000073909759521 53.38077163696289 0.5000073909759521 47.09083557128906 C 0.5000073909759521 40.80089950561523 1.731794953346252 34.69935989379883 4.161144733428955 28.95573616027832 C 6.507719993591309 23.40778541564941 9.867170333862305 18.42512321472168 14.14615726470947 14.1461353302002 C 18.42513275146484 9.867160797119141 23.40780830383301 6.507710456848145 28.95575714111328 4.161135673522949 C 34.69938278198242 1.731785535812378 40.80091857910156 0.4999980628490448 47.09086990356445 0.4999980628490448 C 53.38082122802734 0.4999980628490448 59.48234558105469 1.731785535812378 65.22598266601562 4.161135673522949 C 70.77393341064453 6.507710456848145 75.75660705566406 9.867160797119141 80.03559112548828 14.1461353302002 C 84.31458282470703 18.42512321472168 87.67401885986328 23.40778541564941 90.02060699462891 28.95573616027832 C 92.44995880126953 34.69935989379883 93.68174743652344 40.80089950561523 93.68174743652344 47.09083557128906 C 93.68174743652344 53.38077163696289 92.44995880126953 59.4823112487793 90.02060699462891 65.22593688964844 C 87.67401885986328 70.77388763427734 84.31458282470703 75.75654602050781 80.03559112548828 80.03553771972656 C 75.75660705566406 84.31451416015625 70.77393341064453 87.67395782470703 65.22598266601562 90.02053833007812 C 59.48234558105469 92.44988250732422 53.38082122802734 93.68167114257812 47.09086990356445 93.68167114257812 Z" stroke="none"/><path d="M 47.09086990356445 1 C 40.86819458007812 1 34.83219528198242 2.218498229980469 29.15053558349609 4.621635437011719 C 23.66218566894531 6.943008422851562 18.73293304443359 10.26647186279297 14.49969482421875 14.49969482421875 C 10.26647186279297 18.73292541503906 6.943008422851562 23.66216278076172 4.621635437011719 29.1505126953125 C 2.218498229980469 34.83217239379883 0.9999923706054688 40.86817169189453 0.9999923706054688 47.09083557128906 C 0.9999923706054688 53.31349945068359 2.218498229980469 59.3494987487793 4.621635437011719 65.03115844726562 C 6.943008422851562 70.51950836181641 10.26647186279297 75.44874572753906 14.49969482421875 79.68197631835938 C 18.73293304443359 83.91519927978516 23.66218566894531 87.23866271972656 29.15053558349609 89.56003570556641 C 34.83219528198242 91.96317291259766 40.86819458007812 93.18167114257812 47.09086990356445 93.18167114257812 C 53.31353378295898 93.18167114257812 59.34953308105469 91.96317291259766 65.03120422363281 89.56003570556641 C 70.51956176757812 87.23866271972656 75.44880676269531 83.91519927978516 79.68202972412109 79.68197631835938 C 83.91526031494141 75.44874572753906 87.23872375488281 70.51950836181641 89.56009674072266 65.03115844726562 C 91.96323394775391 59.3494987487793 93.18173217773438 53.31349945068359 93.18173217773438 47.09083557128906 C 93.18173217773438 40.86817169189453 91.96323394775391 34.83217239379883 89.56009674072266 29.1505126953125 C 87.23872375488281 23.66216278076172 83.91526031494141 18.73292541503906 79.68202972412109 14.49969482421875 C 75.44880676269531 10.26647186279297 70.51956176757812 6.943008422851562 65.03120422363281 4.621635437011719 C 59.34953308105469 2.218498229980469 53.31353378295898 1 47.09086990356445 1 M 47.09086990356445 0 C 73.09843444824219 0 94.18173217773438 21.08328247070312 94.18173217773438 47.09083557128906 C 94.18173217773438 73.098388671875 73.09843444824219 94.18167114257812 47.09086990356445 94.18167114257812 C 21.08329772949219 94.18167114257812 -7.62939453125e-06 73.098388671875 -7.62939453125e-06 47.09083557128906 C -7.62939453125e-06 21.08328247070312 21.08329772949219 0 47.09086990356445 0 Z" stroke="none" fill="#fff"/></g><g transform="matrix(1, 0, 0, 1, -44.93, -45)" filter="url(#a)"><path d="M47.091,0A47.091,47.091,0,1,1,0,47.091,47.091,47.091,0,0,1,47.091,0Z" transform="translate(45 45)" fill="#fb6d3a"/></g><path d="M73.31,39.59H2.711C1.216,39.59,0,38.983,0,38.237v-.247c0-.748,1.216-1.356,2.711-1.356H7.3A30.713,30.713,0,0,1,33.726,6.227c-.019-.2-.028-.389-.028-.571C33.7,2.537,35.874,0,38.549,0s4.845,2.537,4.845,5.657a6.063,6.063,0,0,1-.04.738,30.68,30.68,0,0,1,25.369,30.24H73.31c1.5,0,2.712.608,2.712,1.356v.247C76.022,38.983,74.806,39.59,73.31,39.59ZM30.578,25.783l-.407.306-.1.2-1.018.915,9.257,9.256.2.2.2.2.2-.2,9.358-9.459-.407-.407-.1-.1-.509-.407-.305-.407-.1-.1L39.731,32.8V15.935H37.6V32.8ZM34.032,9A27.9,27.9,0,0,0,10.081,36.638s0-.012.005-.023a55,55,0,0,1,2.022-6.3,40.507,40.507,0,0,1,6.532-11.535,33.353,33.353,0,0,1,9.494-7.271A33.4,33.4,0,0,1,34.032,9Z" transform="translate(9.066 20.981)" fill="#fff" stroke="rgba(0,0,0,0)" stroke-miterlimit="10" stroke-width="1"/></g></svg>