<svg id="black" xmlns="http://www.w3.org/2000/svg" width="22.155" height="18.99" viewBox="0 0 22.155 18.99">
  <g id="twitter" transform="translate(0 0)">
    <path id="Path_996" data-name="Path 996" d="M19.5,1.719A4.52,4.52,0,0,0,16.185.154,4.592,4.592,0,0,0,11.64,4.892a5.119,5.119,0,0,0,.118,1.1A12.812,12.812,0,0,1,2.389.813a5.028,5.028,0,0,0-.615,2.431A5,5,0,0,0,3.8,7.3a4.345,4.345,0,0,1-2.059-.628c0,.02,0,.04,0,.061a4.829,4.829,0,0,0,3.646,4.785,4.278,4.278,0,0,1-2.053.069,4.619,4.619,0,0,0,4.246,3.383A8.773,8.773,0,0,1,1.93,17.03a8.659,8.659,0,0,1-1.084-.07,12.265,12.265,0,0,0,6.968,2.185c8.361,0,12.933-7.274,12.933-13.584q0-.311-.013-.618A9.349,9.349,0,0,0,23,2.5a8.675,8.675,0,0,1-2.611.714,4.661,4.661,0,0,0,2-2.61A8.727,8.727,0,0,1,19.5,1.719Z" transform="translate(-0.846 -0.154)" fill-rule="evenodd"/>
  </g>
</svg>
