<svg xmlns="http://www.w3.org/2000/svg" width="18.607" height="18.99" viewBox="0 0 18.607 18.99">
  <path id="iconfinder_google_1608914" d="M137.5,136.135h8.964a8.982,8.982,0,0,1,.148,1.582,10.016,10.016,0,0,1-1.125,4.791,8.123,8.123,0,0,1-3.208,3.295,9.482,9.482,0,0,1-4.778,1.187,9.333,9.333,0,0,1-3.7-.748,9.306,9.306,0,0,1-5.05-5.05,9.508,9.508,0,0,1,0-7.393,9.306,9.306,0,0,1,5.05-5.05,9.334,9.334,0,0,1,3.7-.748,9,9,0,0,1,6.367,2.485l-2.584,2.485A5.227,5.227,0,0,0,137.5,131.5a5.673,5.673,0,0,0-2.949.8,6.048,6.048,0,0,0,0,10.385,5.673,5.673,0,0,0,2.949.8,6.3,6.3,0,0,0,1.978-.3,4.989,4.989,0,0,0,1.484-.742,5.368,5.368,0,0,0,1.014-1.014,4.726,4.726,0,0,0,.637-1.076,4.543,4.543,0,0,0,.278-.964H137.5Z" transform="translate(-128 -128)"/>
</svg>
