<svg xmlns="http://www.w3.org/2000/svg" width="44.671" height="42.06" viewBox="0 0 44.671 42.06">
  <defs>
    <style>
      .cls-1 {
        fill: #fff;
      }

      .cls-2 {
        fill: #589441;
      }

      .cls-3, .cls-4 {
        fill: none;
        stroke-linecap: round;
        stroke-linejoin: round;
        stroke-miterlimit: 10;
        stroke-width: 2px;
      }

      .cls-3 {
        stroke: #231e1f;
      }

      .cls-4 {
        stroke: #a1a3b5;
      }

      .cls-5 {
        fill: #f7f7f7;
      }

      .cls-6 {
        fill: #6ca854;
      }
    </style>
  </defs>
  <g id="iconfinder_resolutions-04_897245" transform="translate(-7 -9)">
    <path id="Path_1004" data-name="Path 1004" class="cls-1" d="M39.82,14H43.9a3.273,3.273,0,0,1,3.264,3.264V41.74A3.273,3.273,0,0,1,43.9,45H11.264A3.273,3.273,0,0,1,8,41.74V17.264A3.273,3.273,0,0,1,11.264,14h4.079" transform="translate(0 -0.736)"/>
    <path id="Path_1005" data-name="Path 1005" class="cls-2" d="M43.9,14H11.264A3.273,3.273,0,0,0,8,17.264v4.079H47.163V17.264A3.273,3.273,0,0,0,43.9,14Z" transform="translate(0 -0.736)"/>
    <line id="Line_11" data-name="Line 11" class="cls-3" x2="5" transform="translate(30 13)"/>
    <line id="Line_12" data-name="Line 12" class="cls-3" x2="5" transform="translate(20 13)"/>
    <path id="Path_1006" data-name="Path 1006" class="cls-3" d="M30.029,45H11.264A3.273,3.273,0,0,1,8,41.74V17.264A3.273,3.273,0,0,1,11.264,14h4.079" transform="translate(0 -0.736)"/>
    <path id="Path_1007" data-name="Path 1007" class="cls-3" d="M47,14h4.079a3.273,3.273,0,0,1,3.264,3.264v13.87" transform="translate(-7.18 -0.736)"/>
    <circle id="Ellipse_1108" data-name="Ellipse 1108" class="cls-4" cx="0.816" cy="0.816" r="0.816" transform="translate(24.318 26.481)"/>
    <circle id="Ellipse_1109" data-name="Ellipse 1109" class="cls-4" cx="0.816" cy="0.816" r="0.816" transform="translate(30.029 26.481)"/>
    <circle id="Ellipse_1110" data-name="Ellipse 1110" class="cls-4" cx="0.816" cy="0.816" r="0.816" transform="translate(35.74 26.481)"/>
    <circle id="Ellipse_1111" data-name="Ellipse 1111" class="cls-4" cx="0.816" cy="0.816" r="0.816" transform="translate(41.451 26.481)"/>
    <circle id="Ellipse_1112" data-name="Ellipse 1112" class="cls-4" cx="0.816" cy="0.816" r="0.816" transform="translate(24.318 32.192)"/>
    <circle id="Ellipse_1113" data-name="Ellipse 1113" class="cls-3" cx="0.816" cy="0.816" r="0.816" transform="translate(18.607 32.192)"/>
    <circle id="Ellipse_1114" data-name="Ellipse 1114" class="cls-4" cx="0.816" cy="0.816" r="0.816" transform="translate(12.895 32.192)"/>
    <circle id="Ellipse_1115" data-name="Ellipse 1115" class="cls-4" cx="0.816" cy="0.816" r="0.816" transform="translate(30.029 32.192)"/>
    <circle id="Ellipse_1116" data-name="Ellipse 1116" class="cls-4" cx="0.816" cy="0.816" r="0.816" transform="translate(24.318 37.903)"/>
    <circle id="Ellipse_1117" data-name="Ellipse 1117" class="cls-4" cx="0.816" cy="0.816" r="0.816" transform="translate(18.607 37.903)"/>
    <circle id="Ellipse_1118" data-name="Ellipse 1118" class="cls-4" cx="0.816" cy="0.816" r="0.816" transform="translate(12.895 37.903)"/>
    <line id="Line_13" data-name="Line 13" class="cls-3" y1="5" transform="translate(27 10)"/>
    <line id="Line_14" data-name="Line 14" class="cls-3" y1="5" transform="translate(18 10)"/>
    <line id="Line_15" data-name="Line 15" class="cls-3" y1="5" transform="translate(38 10)"/>
    <line id="Line_16" data-name="Line 16" class="cls-3" x2="39" transform="translate(8 21)"/>
    <path id="Path_1009" data-name="Path 1009" class="cls-5" d="M9.056,0A9.056,9.056,0,1,1,0,9.056,9.056,9.056,0,0,1,9.056,0Z" transform="translate(32.558 31.947)"/>
    <path id="Path_1008" data-name="Path 1008" class="cls-6" d="M43.4,38.2l4.569,7.588,8.648-2.937s-1.55-4.079-5.385-5.385A8.679,8.679,0,0,0,43.4,38.2Z" transform="translate(-6.518 -4.948)"/>
    <circle id="Ellipse_1120" data-name="Ellipse 1120" class="cls-3" cx="9.056" cy="9.056" r="9.056" transform="translate(32.558 31.947)"/>
    <line id="Line_17" data-name="Line 17" class="cls-3" y1="1.469" x2="4.161" transform="translate(41.615 39.535)"/>
    <line id="Line_18" data-name="Line 18" class="cls-3" x1="3.345" y1="5.385" transform="translate(38.269 35.619)"/>
  </g>
</svg>
