<svg id="search_1_" data-name="search (1)" xmlns="http://www.w3.org/2000/svg" width="21.311" height="21.311" viewBox="0 0 21.311 21.311">
  <defs>
    <style>
      .cls-1 {
        fill: #353b49;
      }
    </style>
  </defs>
  <g id="Group_8" data-name="Group 8" transform="translate(3.204 4.619)">
    <g id="Group_7" data-name="Group 7">
      <path id="Path_8" data-name="Path 8" class="cls-1" d="M79.658,111.206a.787.787,0,0,0-1.113,0,5.381,5.381,0,0,0-1.539,4.362.787.787,0,0,0,.783.709c.026,0,.053,0,.079,0a.788.788,0,0,0,.705-.862,3.812,3.812,0,0,1,1.085-3.092A.787.787,0,0,0,79.658,111.206Z" transform="translate(-76.978 -110.975)"/>
    </g>
  </g>
  <g id="Group_10" data-name="Group 10">
    <g id="Group_9" data-name="Group 9">
      <path id="Path_9" data-name="Path 9" class="cls-1" d="M9,0a9,9,0,1,0,9,9A9.012,9.012,0,0,0,9,0ZM9,16.429A7.427,7.427,0,1,1,16.429,9,7.436,7.436,0,0,1,9,16.429Z"/>
    </g>
  </g>
  <g id="Group_12" data-name="Group 12" transform="translate(14.015 14.015)">
    <g id="Group_11" data-name="Group 11">
      <path id="Path_10" data-name="Path 10" class="cls-1" d="M343.774,342.662l-5.721-5.721a.787.787,0,1,0-1.113,1.113l5.721,5.721a.787.787,0,0,0,1.113-1.113Z" transform="translate(-336.708 -336.71)"/>
    </g>
  </g>
</svg>
