<svg xmlns="http://www.w3.org/2000/svg" width="20.686" height="18.98" viewBox="0 0 20.686 18.98">
  <path id="heart-outline_1_" data-name="heart-outline (1)" d="M12.446,19.083l-.1.1-.114-.1C7.316,14.626,4.069,11.678,4.069,8.689a3.535,3.535,0,0,1,3.62-3.62A4.06,4.06,0,0,1,11.381,7.51H13.3A4.06,4.06,0,0,1,17,5.069a3.535,3.535,0,0,1,3.62,3.62c0,2.989-3.248,5.937-8.171,10.395M17,3a6.22,6.22,0,0,0-4.654,2.151A6.22,6.22,0,0,0,7.689,3,5.627,5.627,0,0,0,2,8.689c0,3.9,3.517,7.1,8.843,11.926l1.5,1.365,1.5-1.365c5.327-4.83,8.843-8.026,8.843-11.926A5.627,5.627,0,0,0,17,3Z" transform="translate(-2 -3)" fill="#fff"/>
</svg>
