<svg xmlns="http://www.w3.org/2000/svg" width="20.267" height="19.995" viewBox="0 0 20.267 19.995">
  <defs>
    <style>
      .cls-1 {
        fill: none;
        stroke: #2d2d2d;
      }
    </style>
  </defs>
  <g id="heart_2_" data-name="heart (2)" transform="translate(0.5 -20.833)">
    <g id="Group_164" data-name="Group 164" transform="translate(0 21.333)">
      <path id="Path_553" data-name="Path 553" class="cls-1" d="M14.25,21.333c-2.137,0-3.9,2.135-4.616,3.142-.714-1.008-2.479-3.142-4.616-3.142C2.251,21.333,0,24.069,0,27.431a6.608,6.608,0,0,0,1.862,4.714.424.424,0,0,0,.063.088L9.35,40.2a.382.382,0,0,0,.567,0l7.672-8.248.079-.083c.063-.064.125-.128.194-.211a.419.419,0,0,0,.071-.1,6.833,6.833,0,0,0,1.333-4.126C19.267,24.069,17.016,21.333,14.25,21.333Zm3.016,9.738a.4.4,0,0,0-.03.044c-.038.046-.079.087-.12.129L9.633,39.286,2.584,31.72a.43.43,0,0,0-.093-.129A5.687,5.687,0,0,1,.8,27.431C.8,24.545,2.693,22.2,5.017,22.2c2.3,0,4.259,3.223,4.279,3.256a.4.4,0,0,0,.675,0c.02-.032,1.981-3.256,4.279-3.256,2.324,0,4.215,2.348,4.215,5.234A5.914,5.914,0,0,1,17.266,31.071Z" transform="translate(0 -21.333)"/>
    </g>
  </g>
</svg>
