<svg id="menu_3_" data-name="menu (3)" xmlns="http://www.w3.org/2000/svg" width="28.736" height="21.28" viewBox="0 0 28.736 21.28">
  <g id="Group_2525" data-name="Group 2525" transform="translate(0 0)">
    <g id="Group_2524" data-name="Group 2524">
      <path id="Path_813" data-name="Path 813" d="M28.18,64.912,16.867,63.659a5.113,5.113,0,0,0-2.5.833,5.075,5.075,0,0,0-2.566-.83L.556,64.912A.624.624,0,0,0,0,65.533V84.274a.625.625,0,0,0,.693.621l11.176-1.246a4.1,4.1,0,0,1,1.874.625.653.653,0,0,0,.617.665.586.586,0,0,0,.61-.5.579.579,0,0,0,.019-.1,3.583,3.583,0,0,1,1.808-.687L28.041,84.9a.627.627,0,0,0,.695-.622V65.533A.624.624,0,0,0,28.18,64.912Zm-.693,18.663L16.867,82.4a5.113,5.113,0,0,0-2.5.833,5.177,5.177,0,0,0-2.559-.83H11.8L1.249,83.576V66.092l10.62-1.183a4.1,4.1,0,0,1,1.874.625.651.651,0,0,0,.617.663.586.586,0,0,0,.611-.5.579.579,0,0,0,.019-.1A3.584,3.584,0,0,1,16.8,64.9l10.689,1.188Z" transform="translate(0 -63.659)" fill="#bec1d6"/>
    </g>
  </g>
  <g id="Group_2527" data-name="Group 2527" transform="translate(13.778 1.18)">
    <g id="Group_2526" data-name="Group 2526">
      <path id="Path_814" data-name="Path 814" d="M235.256,84.992a.6.6,0,0,0-.59.6v17.976a.59.59,0,1,0,1.18,0V85.591A.6.6,0,0,0,235.256,84.992Z" transform="translate(-234.666 -84.992)" fill="#bec1d6"/>
    </g>
  </g>
  <g id="Group_2529" data-name="Group 2529" transform="translate(24.016 16.066)">
    <g id="Group_2528" data-name="Group 2528">
      <path id="Path_815" data-name="Path 815" d="M407.231,337.074c-.277-.07-.707-.151-1.228-.237a.582.582,0,0,0-.678.486.59.59,0,0,0,.486.678c.481.08.877.155,1.132.218a.59.59,0,0,0,.716-.431A.588.588,0,0,0,407.231,337.074Z" transform="translate(-405.317 -336.827)" fill="#bec1d6"/>
    </g>
  </g>
  <g id="Group_2531" data-name="Group 2531" transform="translate(16.493 15.075)">
    <g id="Group_2530" data-name="Group 2530">
      <path id="Path_816" data-name="Path 816" d="M282.713,320.278c-2.285-.315-4.73-.6-4.73-.6a.59.59,0,1,0-.138,1.171s2.435.285,4.707.6a.48.48,0,0,0,.081.006.59.59,0,0,0,.08-1.174Z" transform="translate(-277.324 -319.671)" fill="#bec1d6"/>
    </g>
  </g>
  <g id="Group_2533" data-name="Group 2533" transform="translate(24.017 12.304)">
    <g id="Group_2532" data-name="Group 2532">
      <path id="Path_817" data-name="Path 817" d="M407.246,273.11c-.277-.068-.705-.15-1.226-.237a.59.59,0,1,0-.193,1.163c.481.08.878.155,1.134.218a.59.59,0,1,0,.285-1.144Z" transform="translate(-405.333 -272.864)" fill="#bec1d6"/>
    </g>
  </g>
  <g id="Group_2535" data-name="Group 2535" transform="translate(16.493 11.305)">
    <g id="Group_2534" data-name="Group 2534">
      <path id="Path_818" data-name="Path 818" d="M282.713,256.261c-2.284-.315-4.729-.6-4.729-.6a.59.59,0,0,0-.138,1.171s2.435.287,4.707.6a.5.5,0,0,0,.081.006.59.59,0,0,0,.079-1.174Z" transform="translate(-277.325 -255.654)" fill="#bec1d6"/>
    </g>
  </g>
  <g id="Group_2537" data-name="Group 2537" transform="translate(24.016 8.539)">
    <g id="Group_2536" data-name="Group 2536">
      <path id="Path_819" data-name="Path 819" d="M407.23,209.089c-.277-.068-.705-.151-1.227-.237a.584.584,0,0,0-.678.486.59.59,0,0,0,.486.678c.481.08.878.155,1.134.218a.59.59,0,1,0,.286-1.145Z" transform="translate(-405.317 -208.843)" fill="#bec1d6"/>
    </g>
  </g>
  <g id="Group_2539" data-name="Group 2539" transform="translate(16.493 7.536)">
    <g id="Group_2538" data-name="Group 2538">
      <path id="Path_820" data-name="Path 820" d="M282.711,192.241c-2.284-.315-4.728-.6-4.728-.6a.59.59,0,1,0-.138,1.171s2.434.287,4.706.6a.494.494,0,0,0,.081.006.59.59,0,0,0,.079-1.174Z" transform="translate(-277.324 -191.634)" fill="#bec1d6"/>
    </g>
  </g>
  <g id="Group_2541" data-name="Group 2541" transform="translate(24.016 4.774)">
    <g id="Group_2540" data-name="Group 2540">
      <path id="Path_821" data-name="Path 821" d="M407.23,145.084c-.277-.068-.705-.151-1.227-.237a.583.583,0,0,0-.678.486.59.59,0,0,0,.486.678c.481.08.878.155,1.134.218a.59.59,0,1,0,.286-1.145Z" transform="translate(-405.317 -144.838)" fill="#bec1d6"/>
    </g>
  </g>
  <g id="Group_2543" data-name="Group 2543" transform="translate(16.493 3.767)">
    <g id="Group_2542" data-name="Group 2542">
      <path id="Path_822" data-name="Path 822" d="M282.711,128.245c-2.284-.315-4.728-.6-4.728-.6a.59.59,0,1,0-.138,1.171s2.434.287,4.706.6a.492.492,0,0,0,.081.006.59.59,0,0,0,.079-1.174Z" transform="translate(-277.324 -127.638)" fill="#bec1d6"/>
    </g>
  </g>
  <path id="silverware_1_" data-name="silverware (1)" d="M5.268,7.947,3.292,5.976a1.89,1.89,0,0,1,0-2.669L6.6,6.608,5.268,7.947m3.2-.854-.693.693,3.245,3.245-.665.665L7.107,8.452,3.862,11.7,3.2,11.031l4.6-4.6a2.293,2.293,0,0,1,.651-2.485,2.091,2.091,0,0,1,2.881-.387,2.091,2.091,0,0,1-.382,2.886A2.293,2.293,0,0,1,8.465,7.094Z" transform="translate(0.401 2.681)" fill="#bec1d6"/>
</svg>
