<svg xmlns="http://www.w3.org/2000/svg" width="20.553" height="20.553" viewBox="0 0 20.553 20.553">
  <path id="qrcode-scan_1_" data-name="qrcode-scan (1)" d="M3.426,3.426H8.564V8.564H3.426V3.426m13.7,0V8.564H11.989V3.426h5.138m-5.138,9.42H13.7V11.133H11.989V9.42H13.7v1.713h1.713V9.42h1.713v1.713H15.415v1.713h1.713v2.569H15.415v1.713H13.7V15.415H11.133v1.713H9.42V13.7h2.569v-.856m1.713,0v2.569h1.713V12.846H13.7M3.426,17.128V11.989H8.564v5.138H3.426M5.138,5.138V6.851H6.851V5.138H5.138m8.564,0V6.851h1.713V5.138H13.7M5.138,13.7v1.713H6.851V13.7H5.138M3.426,9.42H5.138v1.713H3.426V9.42m4.282,0h3.426v3.426H9.42V11.133H7.707V9.42M9.42,5.138h1.713V8.564H9.42V5.138M1.713,1.713V5.138H0V1.713A1.713,1.713,0,0,1,1.713,0H5.138V1.713H1.713M18.84,0a1.713,1.713,0,0,1,1.713,1.713V5.138H18.84V1.713H15.415V0H18.84M1.713,15.415V18.84H5.138v1.713H1.713A1.713,1.713,0,0,1,0,18.84V15.415H1.713M18.84,18.84V15.415h1.713V18.84a1.713,1.713,0,0,1-1.713,1.713H15.415V18.84Z" fill="#bec1d6"/>
</svg>
